<?xml version="1.0" standalone="no"?>
<!DOCTYPE svg PUBLIC "-//W3C//DTD SVG 20010904//EN"
 "http://www.w3.org/TR/2001/REC-SVG-20010904/DTD/svg10.dtd">
<svg version="1.0" xmlns="http://www.w3.org/2000/svg"
 width="512.000000pt" height="512.000000pt" viewBox="0 0 512.000000 512.000000"
 preserveAspectRatio="xMidYMid meet">
<metadata>
Created by potrace 1.14, written by Peter Selinger 2001-2017
</metadata>
<g transform="translate(0.000000,512.000000) scale(0.100000,-0.100000)"
fill="#000000" stroke="none">
<path d="M505 4660 c-111 -23 -198 -73 -277 -158 -151 -165 -168 -403 -45
-609 19 -32 108 -182 197 -333 90 -151 195 -329 235 -395 40 -66 80 -133 89
-150 24 -43 49 -85 152 -258 201 -338 289 -486 467 -787 103 -173 191 -320
197 -327 5 -7 10 -14 10 -17 0 -3 118 -202 261 -443 144 -241 276 -463 293
-494 101 -180 217 -275 374 -308 38 -8 367 -11 1095 -11 867 0 1051 3 1096 15
175 46 310 180 356 354 27 103 10 244 -42 343 -56 107 -191 215 -308 244 -17
5 -250 9 -520 11 -269 2 -540 4 -601 6 l-111 2 91 153 91 152 312 0 c189 0
333 4 365 11 88 18 174 65 242 132 282 278 128 754 -265 819 l-76 13 118 198
c66 110 119 203 119 208 0 5 5 9 10 9 6 0 10 5 10 10 0 6 33 64 73 130 78 130
104 174 121 205 6 11 19 31 27 45 21 32 271 454 296 500 157 282 -1 641 -318
725 -46 13 -356 15 -2074 14 -1111 -1 -2038 -5 -2060 -9z"/>
</g>
</svg>
