<?xml version="1.0" standalone="no"?>
<!DOCTYPE svg PUBLIC "-//W3C//DTD SVG 20010904//EN"
 "http://www.w3.org/TR/2001/REC-SVG-20010904/DTD/svg10.dtd">
<svg version="1.0" xmlns="http://www.w3.org/2000/svg"
 width="1080.000000pt" height="1080.000000pt" viewBox="0 0 1080.000000 1080.000000"
 preserveAspectRatio="xMidYMid meet">
<metadata>
Created by potrace 1.14, written by Peter Selinger 2001-2017
</metadata>
<g transform="translate(0.000000,1080.000000) scale(0.100000,-0.100000)"
fill="#000000" stroke="none">
<path d="M0 5400 l0 -5400 2356 0 2356 0 -51 56 c-142 160 -180 384 -94 559
53 109 144 165 267 165 97 0 158 -22 204 -75 52 -59 78 -132 102 -284 25 -159
53 -251 83 -279 57 -54 161 -48 241 14 25 19 70 72 102 119 131 198 242 546
363 1140 26 127 571 3378 571 3405 0 6 -129 11 -317 12 l-318 3 14 152 14 153
331 0 332 0 22 121 c112 609 272 1011 521 1309 195 235 452 377 751 417 155
20 393 13 503 -16 229 -60 398 -218 437 -408 7 -32 10 -95 8 -143 -5 -100 -30
-166 -85 -222 -102 -105 -309 -116 -413 -22 -58 53 -86 120 -119 289 -36 178
-53 230 -88 267 -47 49 -136 61 -246 32 -164 -42 -275 -150 -380 -367 -116
-241 -172 -452 -256 -967 l-47 -290 358 0 c352 0 358 0 358 -20 0 -19 -23
-183 -35 -258 l-6 -32 -364 0 c-201 0 -365 -4 -365 -8 0 -29 -456 -2795 -481
-2917 -184 -904 -470 -1527 -838 -1827 -42 -34 -80 -65 -86 -70 -5 -4 1139 -8
2543 -8 l2552 0 0 5400 0 5400 -5400 0 -5400 0 0 -5400z m5073 -208 c79 -39
150 -114 200 -211 108 -208 129 -556 56 -958 -119 -663 -560 -1392 -1176
-1945 -224 -201 -461 -384 -669 -516 l-81 -52 -181 0 c-167 0 -182 1 -182 18
0 9 -7 157 -15 327 -44 915 -95 1515 -191 2280 -54 433 -72 529 -116 614 -28
54 -41 69 -88 95 -54 30 -58 31 -185 31 -71 0 -156 -3 -187 -8 l-58 -7 0 118
0 118 518 62 c284 35 550 63 589 62 67 0 73 -2 78 -22 6 -29 58 -543 84 -833
25 -274 66 -814 86 -1125 33 -538 39 -670 39 -967 1 -172 4 -313 8 -313 11 0
162 131 301 263 282 264 527 557 689 822 227 373 328 678 328 990 0 209 -41
313 -183 476 -169 192 -190 235 -189 388 1 167 64 259 215 313 40 14 74 18
148 15 84 -2 103 -6 162 -35z"/>
</g>
</svg>
